<mxfile host="app.diagrams.net" modified="2024-06-05T09:14:30.562Z" agent="Mozilla/5.0 (Macintosh; Intel Mac OS X 10_15_7) AppleWebKit/537.36 (KHTML, like Gecko) Chrome/125.0.0.0 Safari/537.36" etag="yZp_vxlzwBO99SPtBsYT" version="24.4.13" type="github">
  <diagram name="Page-1" id="OlHyb_jF4ESfPcGbZSpm">
    <mxGraphModel dx="1282" dy="719" grid="1" gridSize="10" guides="1" tooltips="1" connect="1" arrows="1" fold="1" page="1" pageScale="1" pageWidth="850" pageHeight="1100" math="0" shadow="0">
      <root>
        <mxCell id="0" />
        <mxCell id="1" parent="0" />
        <mxCell id="CWwOudwgfK0mol7_iwpN-20" value="" style="rounded=0;whiteSpace=wrap;html=1;fillColor=none;dashed=1;" vertex="1" parent="1">
          <mxGeometry x="149" y="502" width="570" height="229" as="geometry" />
        </mxCell>
        <mxCell id="CWwOudwgfK0mol7_iwpN-1" value="&lt;span style=&quot;font-size: 14px;&quot;&gt;&lt;font style=&quot;font-size: 14px;&quot;&gt;v1/deviceFeatureSearch&lt;/font&gt;&lt;/span&gt;&lt;div style=&quot;font-size: 14px;&quot;&gt;&lt;font style=&quot;font-size: 14px;&quot;&gt;v1/barndingUiBundle&lt;/font&gt;&lt;/div&gt;&lt;div style=&quot;font-size: 14px;&quot;&gt;&lt;font style=&quot;font-size: 14px;&quot;&gt;v1/internalRatings&lt;/font&gt;&lt;/div&gt;" style="ellipse;shape=cloud;whiteSpace=wrap;html=1;" vertex="1" parent="1">
          <mxGeometry x="508" y="289" width="240" height="180" as="geometry" />
        </mxCell>
        <mxCell id="CWwOudwgfK0mol7_iwpN-4" style="edgeStyle=orthogonalEdgeStyle;rounded=0;orthogonalLoop=1;jettySize=auto;html=1;exitX=0.5;exitY=1;exitDx=0;exitDy=0;exitPerimeter=0;" edge="1" parent="1" source="CWwOudwgfK0mol7_iwpN-2" target="CWwOudwgfK0mol7_iwpN-2">
          <mxGeometry relative="1" as="geometry" />
        </mxCell>
        <mxCell id="CWwOudwgfK0mol7_iwpN-2" value="&lt;font style=&quot;font-size: 14px;&quot;&gt;Persistant Storage&lt;/font&gt;" style="shape=cylinder3;whiteSpace=wrap;html=1;boundedLbl=1;backgroundOutline=1;size=15;" vertex="1" parent="1">
          <mxGeometry x="519" y="517" width="180" height="70" as="geometry" />
        </mxCell>
        <mxCell id="CWwOudwgfK0mol7_iwpN-6" value="Parental Control" style="rounded=0;whiteSpace=wrap;html=1;" vertex="1" parent="1">
          <mxGeometry x="180" y="220" width="120" height="60" as="geometry" />
        </mxCell>
        <mxCell id="CWwOudwgfK0mol7_iwpN-7" value="App Startup" style="rounded=1;whiteSpace=wrap;html=1;" vertex="1" parent="1">
          <mxGeometry x="180" y="80" width="120" height="60" as="geometry" />
        </mxCell>
        <mxCell id="CWwOudwgfK0mol7_iwpN-8" value="" style="endArrow=classic;html=1;rounded=0;exitX=0.5;exitY=1;exitDx=0;exitDy=0;" edge="1" parent="1" source="CWwOudwgfK0mol7_iwpN-7" target="CWwOudwgfK0mol7_iwpN-6">
          <mxGeometry width="50" height="50" relative="1" as="geometry">
            <mxPoint x="400" y="390" as="sourcePoint" />
            <mxPoint x="450" y="340" as="targetPoint" />
          </mxGeometry>
        </mxCell>
        <mxCell id="CWwOudwgfK0mol7_iwpN-10" value="Request PC settings" style="text;html=1;align=center;verticalAlign=middle;resizable=0;points=[];autosize=1;strokeColor=none;fillColor=none;" vertex="1" parent="1">
          <mxGeometry x="368" y="359" width="130" height="30" as="geometry" />
        </mxCell>
        <mxCell id="CWwOudwgfK0mol7_iwpN-12" value="Response" style="text;html=1;align=center;verticalAlign=middle;resizable=0;points=[];autosize=1;strokeColor=none;fillColor=none;" vertex="1" parent="1">
          <mxGeometry x="393" y="389" width="80" height="30" as="geometry" />
        </mxCell>
        <mxCell id="CWwOudwgfK0mol7_iwpN-13" value="Successful Response?" style="rhombus;whiteSpace=wrap;html=1;" vertex="1" parent="1">
          <mxGeometry x="179" y="503" width="120" height="100" as="geometry" />
        </mxCell>
        <mxCell id="CWwOudwgfK0mol7_iwpN-14" value="" style="endArrow=classic;html=1;rounded=0;exitX=0.5;exitY=1;exitDx=0;exitDy=0;" edge="1" parent="1" source="CWwOudwgfK0mol7_iwpN-6" target="CWwOudwgfK0mol7_iwpN-26">
          <mxGeometry width="50" height="50" relative="1" as="geometry">
            <mxPoint x="400" y="390" as="sourcePoint" />
            <mxPoint x="80" y="330" as="targetPoint" />
          </mxGeometry>
        </mxCell>
        <mxCell id="CWwOudwgfK0mol7_iwpN-15" value="" style="endArrow=classic;html=1;rounded=0;exitX=1;exitY=0.5;exitDx=0;exitDy=0;entryX=0;entryY=0.5;entryDx=0;entryDy=0;entryPerimeter=0;" edge="1" parent="1" source="CWwOudwgfK0mol7_iwpN-13" target="CWwOudwgfK0mol7_iwpN-2">
          <mxGeometry width="50" height="50" relative="1" as="geometry">
            <mxPoint x="314" y="658" as="sourcePoint" />
            <mxPoint x="534" y="655" as="targetPoint" />
          </mxGeometry>
        </mxCell>
        <mxCell id="CWwOudwgfK0mol7_iwpN-16" value="Store the PC settings" style="text;html=1;align=center;verticalAlign=middle;resizable=0;points=[];autosize=1;strokeColor=none;fillColor=none;" vertex="1" parent="1">
          <mxGeometry x="332" y="526" width="140" height="30" as="geometry" />
        </mxCell>
        <mxCell id="CWwOudwgfK0mol7_iwpN-17" value="Client Default PC Settings" style="rounded=0;whiteSpace=wrap;html=1;" vertex="1" parent="1">
          <mxGeometry x="179" y="665" width="120" height="60" as="geometry" />
        </mxCell>
        <mxCell id="CWwOudwgfK0mol7_iwpN-18" value="" style="endArrow=classic;html=1;rounded=0;exitX=0.5;exitY=1;exitDx=0;exitDy=0;" edge="1" parent="1" source="CWwOudwgfK0mol7_iwpN-13" target="CWwOudwgfK0mol7_iwpN-17">
          <mxGeometry width="50" height="50" relative="1" as="geometry">
            <mxPoint x="399" y="535" as="sourcePoint" />
            <mxPoint x="449" y="485" as="targetPoint" />
          </mxGeometry>
        </mxCell>
        <mxCell id="CWwOudwgfK0mol7_iwpN-19" value="NO" style="text;html=1;align=center;verticalAlign=middle;resizable=0;points=[];autosize=1;strokeColor=none;fillColor=none;fontStyle=1" vertex="1" parent="1">
          <mxGeometry x="233" y="613" width="40" height="30" as="geometry" />
        </mxCell>
        <mxCell id="CWwOudwgfK0mol7_iwpN-21" style="edgeStyle=orthogonalEdgeStyle;rounded=0;orthogonalLoop=1;jettySize=auto;html=1;exitX=0.5;exitY=1;exitDx=0;exitDy=0;" edge="1" parent="1" source="CWwOudwgfK0mol7_iwpN-20" target="CWwOudwgfK0mol7_iwpN-20">
          <mxGeometry relative="1" as="geometry" />
        </mxCell>
        <mxCell id="CWwOudwgfK0mol7_iwpN-22" value="" style="endArrow=classic;html=1;rounded=0;exitX=0.16;exitY=1;exitDx=0;exitDy=0;exitPerimeter=0;" edge="1" parent="1" source="CWwOudwgfK0mol7_iwpN-20">
          <mxGeometry width="50" height="50" relative="1" as="geometry">
            <mxPoint x="400" y="711" as="sourcePoint" />
            <mxPoint x="240" y="801" as="targetPoint" />
          </mxGeometry>
        </mxCell>
        <mxCell id="CWwOudwgfK0mol7_iwpN-23" value="Continue with the loaded PC settings" style="text;html=1;align=center;verticalAlign=middle;whiteSpace=wrap;rounded=0;" vertex="1" parent="1">
          <mxGeometry x="169" y="801" width="140" height="30" as="geometry" />
        </mxCell>
        <mxCell id="CWwOudwgfK0mol7_iwpN-26" value="PC settings&lt;div&gt;available in&amp;nbsp;&lt;/div&gt;&lt;div&gt;Persistant&lt;/div&gt;&lt;div&gt;Storage?&lt;/div&gt;" style="rhombus;whiteSpace=wrap;html=1;" vertex="1" parent="1">
          <mxGeometry x="171" y="330" width="136" height="120" as="geometry" />
        </mxCell>
        <mxCell id="CWwOudwgfK0mol7_iwpN-27" value="" style="endArrow=classic;startArrow=classic;html=1;rounded=0;exitX=1;exitY=0.5;exitDx=0;exitDy=0;entryX=0.16;entryY=0.55;entryDx=0;entryDy=0;entryPerimeter=0;" edge="1" parent="1" source="CWwOudwgfK0mol7_iwpN-26" target="CWwOudwgfK0mol7_iwpN-1">
          <mxGeometry width="50" height="50" relative="1" as="geometry">
            <mxPoint x="400" y="480" as="sourcePoint" />
            <mxPoint x="450" y="430" as="targetPoint" />
          </mxGeometry>
        </mxCell>
        <mxCell id="CWwOudwgfK0mol7_iwpN-28" value="NO" style="text;html=1;align=center;verticalAlign=middle;resizable=0;points=[];autosize=1;strokeColor=none;fillColor=none;fontStyle=1" vertex="1" parent="1">
          <mxGeometry x="313" y="362" width="40" height="30" as="geometry" />
        </mxCell>
        <mxCell id="CWwOudwgfK0mol7_iwpN-29" value="" style="endArrow=classic;html=1;rounded=0;exitX=0.5;exitY=1;exitDx=0;exitDy=0;entryX=0.158;entryY=-0.004;entryDx=0;entryDy=0;entryPerimeter=0;" edge="1" parent="1" source="CWwOudwgfK0mol7_iwpN-26" target="CWwOudwgfK0mol7_iwpN-20">
          <mxGeometry width="50" height="50" relative="1" as="geometry">
            <mxPoint x="400" y="480" as="sourcePoint" />
            <mxPoint x="450" y="430" as="targetPoint" />
          </mxGeometry>
        </mxCell>
        <mxCell id="CWwOudwgfK0mol7_iwpN-30" value="" style="endArrow=classic;html=1;rounded=0;exitX=0;exitY=0.5;exitDx=0;exitDy=0;" edge="1" parent="1" source="CWwOudwgfK0mol7_iwpN-26">
          <mxGeometry width="50" height="50" relative="1" as="geometry">
            <mxPoint x="400" y="540" as="sourcePoint" />
            <mxPoint x="239" y="770" as="targetPoint" />
            <Array as="points">
              <mxPoint x="90" y="390" />
              <mxPoint x="90" y="770" />
            </Array>
          </mxGeometry>
        </mxCell>
        <mxCell id="CWwOudwgfK0mol7_iwpN-31" value="YES" style="text;html=1;align=center;verticalAlign=middle;resizable=0;points=[];autosize=1;strokeColor=none;fillColor=none;fontStyle=1" vertex="1" parent="1">
          <mxGeometry x="115" y="362" width="50" height="30" as="geometry" />
        </mxCell>
        <mxCell id="CWwOudwgfK0mol7_iwpN-32" value="YES" style="text;html=1;align=center;verticalAlign=middle;resizable=0;points=[];autosize=1;strokeColor=none;fillColor=none;fontStyle=1" vertex="1" parent="1">
          <mxGeometry x="290" y="527" width="50" height="30" as="geometry" />
        </mxCell>
      </root>
    </mxGraphModel>
  </diagram>
</mxfile>
